<svg width="37" height="37" viewBox="0 0 37 37" fill="none" xmlns="http://www.w3.org/2000/svg">
<path d="M33.8805 3.96349C34.1454 3.69862 34.1454 3.26919 33.8805 3.00432C33.6157 2.73945 33.1862 2.73945 32.9214 3.00432L31.8507 4.07494L30.7802 3.00447C30.5154 2.7396 30.0859 2.7396 29.8211 3.00447C29.5562 3.26934 29.5562 3.69878 29.8211 3.96365L30.8915 5.03412L29.821 6.10472C29.5561 6.36959 29.5561 6.79902 29.821 7.06389C30.0858 7.32876 30.5153 7.32876 30.7801 7.06389L31.8507 5.9933L32.9215 7.06405C33.1863 7.32892 33.6158 7.32892 33.8806 7.06405C34.1455 6.79918 34.1455 6.36974 33.8806 6.10487L32.8099 5.03412L33.8805 3.96349Z" fill="black"/>
<path fill-rule="evenodd" clip-rule="evenodd" d="M26.0577 6.17622C25.3648 5.48327 24.2413 5.48327 23.5484 6.17622C23.4436 6.281 23.3546 6.39563 23.2815 6.51712C22.3046 5.71227 20.8574 5.76657 19.9439 6.68002L5.44951 21.1744C5.02029 21.6036 4.78076 22.1507 4.73093 22.7115C4.25049 22.6899 3.76296 22.8625 3.39609 23.2294C2.70314 23.9223 2.70314 25.0458 3.39609 25.7388L11.1471 33.4898C11.84 34.1827 12.9635 34.1827 13.6565 33.4898C14.0238 33.1225 14.1964 32.6342 14.1743 32.1532C14.7345 32.1031 15.281 31.8636 15.7099 31.4348L30.2043 16.9404C31.1177 16.027 31.172 14.5799 30.3674 13.603C30.4889 13.5299 30.6035 13.441 30.7083 13.3362C31.4013 12.6433 31.4013 11.5198 30.7083 10.8268L26.0577 6.17622ZM24.5075 7.1354C24.6707 6.97219 24.9354 6.97219 25.0986 7.1354L29.7492 11.786C29.9124 11.9492 29.9124 12.2138 29.7492 12.377C29.586 12.5402 29.3213 12.5402 29.1581 12.377L24.5075 7.72642C24.3443 7.56321 24.3443 7.2986 24.5075 7.1354ZM20.9031 7.6392C21.3445 7.19775 22.0603 7.19775 22.5017 7.6392L29.2451 14.3826C29.6866 14.824 29.6866 15.5398 29.2451 15.9812L14.7507 30.4756C14.3093 30.9171 13.5935 30.9171 13.1521 30.4756L6.40868 23.7322C5.96724 23.2908 5.96724 22.575 6.40868 22.1336L20.9031 7.6392ZM4.94629 24.1886C4.78308 24.0254 4.51847 24.0254 4.35527 24.1886C4.19206 24.3518 4.19206 24.6164 4.35527 24.7796L12.1063 32.5306C12.2695 32.6938 12.5341 32.6938 12.6973 32.5306C12.8605 32.3674 12.8605 32.1028 12.6973 31.9396L4.94629 24.1886Z" fill="black"/>
<path d="M6.68059 34.2643C6.41572 34.5292 5.98628 34.5292 5.72142 34.2643L2.62101 31.1639C2.35615 30.8991 2.35615 30.4696 2.62101 30.2047C2.88589 29.9399 3.31532 29.9399 3.58019 30.2047L6.68059 33.3051C6.94546 33.57 6.94546 33.9995 6.68059 34.2643Z" fill="black"/>
</svg>
