<svg width="28" height="25" viewBox="0 0 28 25" fill="none" xmlns="http://www.w3.org/2000/svg">
<path fill-rule="evenodd" clip-rule="evenodd" d="M1.12076 0.5C0.730758 1.51633 1.26476 2 2.77676 2H4.24076L5.82809 7.41667C8.85209 17.736 8.93176 17.9477 9.99776 18.4987C10.7551 18.8903 12.2791 19 16.9678 19C23.0881 19 24.2061 18.814 24.9158 17.678C25.5118 16.7237 28.0748 7.00833 27.8708 6.47667C27.7174 6.07767 26.0391 6 17.5898 6H7.49176L6.84842 3.75433C5.99576 0.776334 5.20076 0 3.00476 0C1.80809 0 1.25642 0.146333 1.12076 0.5ZM10.6668 21.6667C10.3001 22.0333 10.0001 22.6333 10.0001 23C10.0001 23.8587 11.1414 25 12.0001 25C12.8588 25 14.0001 23.8587 14.0001 23C14.0001 22.6333 13.7001 22.0333 13.3334 21.6667C12.9668 21.3 12.3668 21 12.0001 21C11.6334 21 11.0334 21.3 10.6668 21.6667ZM20.6668 21.6667C20.3001 22.0333 20.0001 22.6333 20.0001 23C20.0001 23.8587 21.1414 25 22.0001 25C22.3668 25 22.9668 24.7 23.3334 24.3333C23.7001 23.9667 24.0001 23.3667 24.0001 23C24.0001 22.6333 23.7001 22.0333 23.3334 21.6667C22.9668 21.3 22.3668 21 22.0001 21C21.6334 21 21.0334 21.3 20.6668 21.6667Z" fill="currentColor"/>
</svg>
