<svg width="20" height="19" viewBox="0 0 20 19" fill="none" xmlns="http://www.w3.org/2000/svg">
<path fill-rule="evenodd" clip-rule="evenodd" d="M2.21845 8.94141L2.21845 8.94141L3.82078 17H16.1793L17.7816 8.94141H2.21845ZM0.256847 9.33144C0.0108954 8.09448 0.957265 6.94141 2.21845 6.94141H17.7816C19.0428 6.94141 19.9892 8.09448 19.7432 9.33144L18.1409 17.39C17.9548 18.3259 17.1335 19 16.1793 19H3.82078C2.86657 19 2.04526 18.3259 1.85918 17.39L0.256847 9.33144Z" fill="#C4C4C4"/>
<path fill-rule="evenodd" clip-rule="evenodd" d="M12.8356 4.01811C13.0163 4.54 13.4477 5 14 5C14.5523 5 15.0104 4.54777 14.9013 4.00638C14.4405 1.72096 12.4212 0 9.99999 0C7.57878 0 5.55952 1.72096 5.09872 4.00638C4.98956 4.54777 5.44771 5 5.99999 5C6.55228 5 6.98368 4.54 7.16437 4.01811C7.57105 2.84347 8.68702 2 9.99999 2C11.313 2 12.4289 2.84347 12.8356 4.01811Z" fill="#C4C4C4"/>
</svg>
