<svg width="22" height="16" viewBox="0 0 22 16" fill="none" xmlns="http://www.w3.org/2000/svg">
<path fill-rule="evenodd" clip-rule="evenodd" d="M5.53703 12C5.836 12 5.98573 12.3615 5.77432 12.5729C5.53568 12.8069 5.34468 13.0852 5.21199 13.3922C5.06672 13.7283 4.76504 14 4.39888 14H1C0.447715 14 0 13.5523 0 13C0 12.4477 0.447715 12 1 12H5.53703ZM6.55269 6C6.99695 6 7.34037 6.38555 7.34037 6.82981C7.34037 7.44799 6.87163 8 6.25344 8H1C0.447715 8 0 7.55228 0 7C0 6.44772 0.447715 6 1 6H6.55269ZM9.23305 1.73057C9.0893 1.8977 8.88277 2 8.66232 2H1C0.447715 2 0 1.55228 0 1C0 0.447715 0.447715 0 1 0H8.60089C9.3403 0 9.7152 1.16998 9.23305 1.73057Z" fill="#C4C4C4"/>
<path fill-rule="evenodd" clip-rule="evenodd" d="M21.5 6.82981C21.5 3.34086 18.6591 0.5 15.1702 0.5C11.6812 0.5 8.84038 3.34086 8.84038 6.82981C8.84038 8.18453 9.27015 9.44064 9.99786 10.4707L6.82872 13.6398C6.72677 13.7388 6.64527 13.8568 6.58889 13.9873C6.53172 14.1195 6.50152 14.2619 6.50006 14.4059C6.49859 14.55 6.52589 14.6929 6.58035 14.8263C6.63481 14.9597 6.71533 15.0809 6.81722 15.1828C6.9191 15.2847 7.04028 15.3652 7.17368 15.4197C7.30706 15.4741 7.44998 15.5014 7.59406 15.4999C7.73814 15.4985 7.88047 15.4683 8.01273 15.4111C8.14318 15.3547 8.26125 15.2732 8.3602 15.1713L11.5293 12.0021C12.5594 12.7299 13.8155 13.1596 15.1702 13.1596C18.6591 13.1596 21.5 10.3188 21.5 6.82981ZM15.1702 2.66596C17.4767 2.66596 19.334 4.52328 19.334 6.82981C19.334 9.13635 17.4767 10.9937 15.1702 10.9937C12.8637 10.9937 11.0063 9.13635 11.0063 6.82981C11.0063 4.52328 12.8637 2.66596 15.1702 2.66596Z" fill="#C4C4C4"/>
</svg>
