<svg width="37" height="38" viewBox="0 0 37 38" fill="none" xmlns="http://www.w3.org/2000/svg">
<path fill-rule="evenodd" clip-rule="evenodd" d="M13.7459 2.72217H18.7645H18.7649H22.3365V3.40041C22.3365 3.98202 22.3717 4.95279 22.4775 5.95152C22.5644 6.77224 22.6947 7.56782 22.8751 8.17627C25.0151 8.42097 26.6772 10.2383 26.6772 12.4438V15.3989C26.7511 15.3883 26.8265 15.3829 26.9033 15.3829C27.7773 15.3829 28.4859 16.0914 28.4859 16.9654V18.7741C28.4859 19.6481 27.7773 20.3566 26.9033 20.3566C26.8265 20.3566 26.7511 20.3512 26.6772 20.3406V25.1043C26.6772 27.3098 25.0151 29.127 22.8751 29.3718C22.6947 29.9802 22.5644 30.7758 22.4775 31.5966C22.3717 32.5953 22.3365 33.5661 22.3365 34.1477V34.8259H18.7649H18.7645H13.7459V34.1477C13.7459 33.5768 13.694 32.6178 13.5373 31.6315C13.4027 30.7842 13.1998 29.9766 12.9205 29.3797C10.7443 29.1696 9.04297 27.3356 9.04297 25.1043V12.4438C9.04297 10.2124 10.7443 8.37843 12.9206 8.16831C13.1998 7.57142 13.4027 6.76383 13.5373 5.91655C13.694 4.93024 13.7459 3.97128 13.7459 3.40041V2.72217ZM18.7645 33.4694H18.7649H20.9917C21.01 32.8931 21.0515 32.1811 21.1285 31.4537C21.2007 30.7722 21.3068 30.0478 21.4639 29.3998H14.3902C14.6175 30.0447 14.7716 30.7551 14.877 31.4187C14.9946 32.1591 15.0577 32.8834 15.0852 33.4694H18.7645ZM15.0852 4.07865H18.7645H18.7649H20.9917C21.01 4.65501 21.0515 5.36694 21.1285 6.09435C21.2007 6.77588 21.3068 7.50022 21.4639 8.14824H14.3902C14.6175 7.5033 14.7716 6.79294 14.877 6.12933C14.9946 5.38902 15.0577 4.66468 15.0852 4.07865ZM25.3207 16.9593L25.3207 16.9654V18.7741L25.3207 18.7801V25.1043C25.3207 26.7275 24.0049 28.0433 22.3817 28.0433H13.3385C11.7153 28.0433 10.3995 26.7275 10.3995 25.1043V12.4438C10.3995 10.8206 11.7153 9.50472 13.3385 9.50472H22.3817C24.0049 9.50472 25.3207 10.8206 25.3207 12.4438V16.9593ZM26.6772 18.7764C26.6785 18.9002 26.7792 19.0001 26.9033 19.0001C27.0282 19.0001 27.1294 18.8989 27.1294 18.7741V16.9654C27.1294 16.8406 27.0282 16.7393 26.9033 16.7393C26.7792 16.7393 26.6785 16.8393 26.6772 16.9631V18.7764ZM10.8515 12.4437C10.8515 11.0702 11.9649 9.95678 13.3384 9.95678H22.3816C23.7551 9.95678 24.8685 11.0702 24.8685 12.4437V25.1042C24.8685 26.4776 23.7551 27.591 22.3816 27.591H13.3384C11.9649 27.591 10.8515 26.4776 10.8515 25.1042V12.4437ZM13.3384 11.3133C12.7141 11.3133 12.208 11.8194 12.208 12.4437V25.1042C12.208 25.7285 12.7141 26.2346 13.3384 26.2346H22.3816C23.0059 26.2346 23.512 25.7285 23.512 25.1042V12.4437C23.512 11.8194 23.0059 11.3133 22.3816 11.3133H13.3384Z" fill="black"/>
</svg>
