<svg width="37" height="37" viewBox="0 0 37 37" fill="none" xmlns="http://www.w3.org/2000/svg">
<path fill-rule="evenodd" clip-rule="evenodd" d="M8.36489 5.61091C8.36489 4.23744 9.47831 3.12402 10.8518 3.12402H30.7468C32.1203 3.12402 33.2337 4.23744 33.2337 5.61091V32.7405C33.2337 34.114 32.1203 35.2274 30.7468 35.2274H23.5123V33.8709H30.7468C31.3711 33.8709 31.8772 33.3648 31.8772 32.7405V5.61091C31.8772 4.9866 31.3711 4.4805 30.7468 4.4805H10.8518C10.2275 4.4805 9.72137 4.9866 9.72137 5.61091V10.1325C9.72137 10.5071 9.41771 10.8108 9.04313 10.8108C8.66855 10.8108 8.36489 10.5071 8.36489 10.1325V5.61091ZM2.93896 14.6541C2.93896 13.2806 4.05238 12.1672 5.42585 12.1672H14.4691C15.8425 12.1672 16.9559 13.2806 16.9559 14.6541V32.7405C16.9559 34.114 15.8425 35.2274 14.4691 35.2274H5.42585C4.05238 35.2274 2.93896 34.114 2.93896 32.7405V14.6541ZM5.42585 13.5237C4.80154 13.5237 4.29545 14.0298 4.29545 14.6541V32.7405C4.29545 33.3648 4.80154 33.8709 5.42585 33.8709H14.4691C15.0934 33.8709 15.5995 33.3648 15.5995 32.7405V14.6541C15.5995 14.0298 15.0934 13.5237 14.4691 13.5237H5.42585Z" fill="black"/>
<circle cx="20.7993" cy="33.645" r="0.904321" fill="black"/>
</svg>
