<svg width="20" height="17" viewBox="0 0 20 17" fill="none" xmlns="http://www.w3.org/2000/svg">
<path fill-rule="evenodd" clip-rule="evenodd" d="M10 14.7329L15.083 10.7795C16.8608 9.39676 17.7927 7.18974 17.544 4.95124C17.2015 1.86849 13.0536 1.1287 11.6665 3.90297L11.2512 4.7336C10.7357 5.76459 9.26439 5.76458 8.7489 4.7336L8.33357 3.90295C6.94643 1.12868 2.79854 1.86846 2.45601 4.95121C2.20728 7.18973 3.13922 9.39676 4.91708 10.7795L10 14.7329ZM11.1987 16.3343C10.4937 16.8827 9.50637 16.8827 8.80131 16.3343L3.6892 12.3582C1.3624 10.5485 0.142716 7.66004 0.46824 4.73035C1.02112 -0.245542 7.60988 -1.50511 10 2.77696C12.3902 -1.50508 18.9789 -0.245506 19.5318 4.73037C19.8573 7.66006 18.6376 10.5485 16.3108 12.3582L11.1987 16.3343Z" fill="#C4C4C4"/>
</svg>
