<svg width="24" height="24" viewBox="0 0 24 24" fill="none" xmlns="http://www.w3.org/2000/svg">
<path d="M15 15.9997V13.9996C15.45 13.7766 16.737 12.2445 16.872 11.0475C17.226 11.0205 17.782 10.6954 17.946 9.41239C18.034 8.72336 17.684 8.33635 17.472 8.21434C17.472 8.21434 18 7.2113 18 6.00025C18 3.57215 17.047 1.50006 15 1.50006C15 1.50006 14.289 0 12 0C7.758 0 6 2.72111 6 6.00025C6 7.1043 6.528 8.21434 6.528 8.21434C6.316 8.33635 5.966 8.72436 6.054 9.41239C6.218 10.6954 6.774 11.0205 7.128 11.0475C7.263 12.2445 8.55 13.7766 9 13.9996V15.9997C8 18.9998 0 16.9997 0 24H24C24 16.9997 16 18.9998 15 15.9997Z" fill="currentColor"/>
</svg>
