<svg width="18" height="19" viewBox="0 0 18 19" fill="none" xmlns="http://www.w3.org/2000/svg">
<path fill-rule="evenodd" clip-rule="evenodd" d="M9 8C10.6569 8 12 6.65685 12 5C12 3.34315 10.6569 2 9 2C7.34315 2 6 3.34315 6 5C6 6.65685 7.34315 8 9 8ZM9 10C11.7614 10 14 7.76142 14 5C14 2.23858 11.7614 0 9 0C6.23858 0 4 2.23858 4 5C4 7.76142 6.23858 10 9 10Z" fill="#C4C4C4"/>
<path fill-rule="evenodd" clip-rule="evenodd" d="M4.82348 13.9442C3.81362 14.6511 2.90458 15.9312 1.9285 18.3714C1.72339 18.8842 1.14141 19.1336 0.628631 18.9285C0.115848 18.7234 -0.133568 18.1414 0.0715452 17.6286C1.09546 15.0688 2.18642 13.3489 3.67656 12.3058C5.18191 11.252 6.93633 11 9.00002 11C11.0637 11 12.8181 11.252 14.3235 12.3058C15.8136 13.3489 16.9046 15.0688 17.9285 17.6286C18.1336 18.1414 17.8842 18.7234 17.3714 18.9285C16.8586 19.1336 16.2767 18.8842 16.0715 18.3714C15.0955 15.9312 14.1864 14.6511 13.1766 13.9442C12.1819 13.248 10.9363 13 9.00002 13C7.06372 13 5.81814 13.248 4.82348 13.9442Z" fill="#C4C4C4"/>
</svg>
