<svg width="302" height="29" viewBox="0 0 302 29" fill="none" xmlns="http://www.w3.org/2000/svg">
<path d="M16.4805 7.86234V21.1854C16.4805 21.6091 16.1016 21.9857 15.6754 21.9857H13.0707C12.6445 21.9857 12.2656 21.6091 12.2656 21.1854V11.2049C12.2656 10.7812 11.8868 10.4045 11.4605 10.4045H7.38777C6.96156 10.4045 6.58269 10.7812 6.58269 11.2049V21.1854C6.58269 21.6091 6.20383 21.9857 5.77761 21.9857H3.17294C2.74672 21.9857 2.36786 21.6091 2.36786 21.1854V7.86234C2.36786 7.39156 2.74672 7.06201 3.17294 7.06201H15.6754C16.1016 7.06201 16.4805 7.39156 16.4805 7.86234Z" fill="#E7372C"/>
<path d="M33.245 12.5701C33.245 15.9597 30.6877 18.0782 26.5676 18.0782H24.768C24.3418 18.0782 23.9629 18.4549 23.9629 18.8786V21.1854C23.9629 21.6091 23.5841 21.9857 23.1579 21.9857H20.5058C20.0796 21.9857 19.7007 21.6091 19.7007 21.1854V7.86234C19.7007 7.43864 20.0796 7.06201 20.5058 7.06201H26.5676C30.6404 7.06201 33.245 9.13344 33.245 12.5701ZM28.9355 12.5701C28.9355 11.2049 28.0357 10.3575 26.2835 10.3575H24.7207C24.2944 10.3575 23.9156 10.7341 23.9156 11.1578V13.9354C23.9156 14.3591 24.2944 14.7357 24.7207 14.7357H26.2835C28.0357 14.7357 28.9355 13.9354 28.9355 12.5701Z" fill="#E7372C"/>
<path d="M34.3817 14.5003C34.3817 10.0279 37.9335 6.73242 42.7166 6.73242C47.4997 6.73242 51.0516 10.0279 51.0516 14.5003C51.0516 18.9727 47.4997 22.2681 42.7166 22.2681C37.9335 22.2681 34.3817 18.9727 34.3817 14.5003ZM46.7894 14.5003C46.7894 11.911 44.9898 10.2162 42.7166 10.2162C40.4434 10.2162 38.6438 11.911 38.6438 14.5003C38.6438 17.0896 40.4434 18.7844 42.7166 18.7844C44.9898 18.7844 46.7894 17.0896 46.7894 14.5003Z" fill="#E7372C"/>
<path d="M73.1676 19.5845C73.1676 24.0569 68.1477 26.6462 62.228 26.6462C59.4812 26.6462 56.5451 26.0813 53.7983 24.9043C53.1827 24.6219 52.8985 23.9157 53.1827 23.2566L54.1772 20.9498C54.4613 20.3378 55.1717 20.0082 55.7873 20.2907C57.6816 21.0439 59.718 21.4206 61.5176 21.4206C64.3117 21.4206 66.5375 20.479 66.5375 18.69C66.5375 17.2777 65.2115 16.6657 63.3172 16.6657H58.5814C57.8711 16.6657 57.3028 16.1008 57.3028 15.3946V13.0878C57.3028 12.3816 57.8711 11.8167 58.5814 11.8167H62.7489C64.5485 11.8167 65.543 11.0634 65.543 9.83939C65.543 8.28582 63.7908 7.4855 61.4703 7.4855C59.9075 7.4855 58.1079 7.81504 56.403 8.52121C55.74 8.80368 55.0296 8.47413 54.7455 7.81504L53.7036 5.17868C53.4668 4.56667 53.751 3.81342 54.3666 3.57803C56.7345 2.77771 59.1971 2.354 61.565 2.354C67.2479 2.354 72.2678 4.80206 72.2678 9.13323C72.2678 10.6868 71.6522 12.005 70.6103 12.9936C70.042 13.5586 70.0894 14.453 70.705 14.9238C72.2678 16.0066 73.1676 17.6543 73.1676 19.5845Z" fill="#1E1E1C"/>
<path d="M92.016 21.6089H83.8231C83.3022 21.6089 82.8286 21.9384 82.6392 22.4092L81.4552 25.3751C81.2658 25.8459 80.7922 26.1754 80.2713 26.1754H76.2932C75.3934 26.1754 74.7778 25.2339 75.1566 24.4336L84.3914 3.67219C84.5808 3.20141 85.0544 2.91895 85.528 2.91895H90.4058C90.9268 2.91895 91.353 3.20141 91.5424 3.67219L100.777 24.4336C101.156 25.281 100.54 26.1754 99.6406 26.1754H95.5204C94.9995 26.1754 94.5259 25.8459 94.3365 25.3751L93.1526 22.4092C93.0105 21.9384 92.5369 21.6089 92.016 21.6089ZM90.2638 15.0651L89.1272 12.2404C88.7009 11.2047 87.2329 11.2047 86.8066 12.2404L85.67 15.0651C85.3385 15.8654 85.9542 16.7599 86.854 16.7599H89.1272C89.9796 16.7599 90.5953 15.8654 90.2638 15.0651Z" fill="#1E1E1C"/>
<path d="M126.208 4.14317V24.9045C126.208 25.6107 125.64 26.1756 124.93 26.1756H120.904C120.194 26.1756 119.625 25.6107 119.625 24.9045V9.36882C119.625 8.66265 119.057 8.09772 118.347 8.09772H111.954C111.243 8.09772 110.675 8.66265 110.675 9.36882V24.9045C110.675 25.6107 110.107 26.1756 109.396 26.1756H105.418C104.708 26.1756 104.14 25.6107 104.14 24.9045V4.14317C104.14 3.43701 104.708 2.87207 105.418 2.87207H124.835C125.64 2.87207 126.208 3.43701 126.208 4.14317Z" fill="#1E1E1C"/>
<path d="M150.834 4.14289V24.9043C150.834 25.6104 150.266 26.1754 149.556 26.1754H145.578C144.867 26.1754 144.299 25.6104 144.299 24.9043V19.8669C144.299 19.0666 143.541 18.4546 142.736 18.6429C141.552 18.9254 140.416 19.0666 139.326 19.0666C132.791 19.0666 129.239 15.8653 129.239 9.98055V4.14289C129.239 3.43672 129.807 2.87178 130.518 2.87178H134.496C135.206 2.87178 135.775 3.43672 135.775 4.14289V9.32146C135.775 12.3344 137.29 13.7939 140.179 13.7939C141.315 13.7939 142.452 13.6526 143.399 13.3231C143.92 13.1348 144.299 12.664 144.299 12.0991V4.09581C144.299 3.38964 144.867 2.82471 145.578 2.82471H149.556C150.266 2.87178 150.834 3.43672 150.834 4.14289Z" fill="#1E1E1C"/>
<path d="M171.103 21.6089H162.91C162.39 21.6089 161.916 21.9384 161.727 22.4092L160.543 25.3751C160.353 25.8459 159.88 26.1754 159.359 26.1754H155.381C154.481 26.1754 153.865 25.2339 154.244 24.4336L163.479 3.67219C163.668 3.20141 164.142 2.91895 164.615 2.91895H169.493C170.014 2.91895 170.44 3.20141 170.63 3.67219L179.865 24.4336C180.243 25.281 179.628 26.1754 178.728 26.1754H174.608C174.087 26.1754 173.613 25.8459 173.424 25.3751L172.24 22.4092C172.098 21.9384 171.624 21.6089 171.103 21.6089ZM169.351 15.0651L168.215 12.2404C167.788 11.2047 166.32 11.2047 165.894 12.2404L164.757 15.0651C164.426 15.8654 165.042 16.7599 165.941 16.7599H168.215C169.067 16.7599 169.683 15.8654 169.351 15.0651Z" fill="#1E1E1C"/>
<path d="M181.569 14.4999C181.569 7.43822 187.015 2.40088 194.451 2.40088C198.239 2.40088 201.365 3.62491 203.638 5.79049C204.159 6.30835 204.112 7.15575 203.591 7.62653L201.223 9.74504C200.749 10.1687 199.991 10.1687 199.518 9.74504C198.192 8.52101 196.629 7.86192 194.782 7.86192C190.946 7.86192 188.247 10.4983 188.247 14.4999C188.247 18.5015 190.899 21.1379 194.782 21.1379C196.629 21.1379 198.192 20.4788 199.518 19.2548C199.991 18.8311 200.702 18.8311 201.223 19.2548L203.591 21.3733C204.112 21.8441 204.159 22.6915 203.638 23.2093C201.412 25.422 198.239 26.5989 194.451 26.5989C187.015 26.5989 181.569 21.5616 181.569 14.4999Z" fill="#1E1E1C"/>
<path d="M224.807 8.09772H220.166C219.455 8.09772 218.887 8.66265 218.887 9.36882V24.9045C218.887 25.6107 218.319 26.1756 217.609 26.1756H213.63C212.92 26.1756 212.352 25.6107 212.352 24.9045V9.36882C212.352 8.66265 211.784 8.09772 211.073 8.09772H206.479C205.769 8.09772 205.201 7.53278 205.201 6.82662V4.14317C205.201 3.43701 205.769 2.87207 206.479 2.87207H224.807C225.517 2.87207 226.086 3.43701 226.086 4.14317V6.87369C226.086 7.53278 225.517 8.09772 224.807 8.09772Z" fill="#1E1E1C"/>
<path d="M230.348 2.87207H234.326C235.036 2.87207 235.604 3.43701 235.604 4.14317V12.6172C235.604 13.8412 237.167 14.312 237.878 13.3234L244.887 3.43701C245.123 3.10746 245.502 2.91915 245.928 2.91915H250.238C250.948 2.91915 251.517 3.48408 251.517 4.19025V24.9516C251.517 25.6578 250.948 26.2227 250.238 26.2227H246.26C245.55 26.2227 244.981 25.6578 244.981 24.9516V16.4776C244.981 15.2536 243.418 14.7828 242.708 15.7714L235.747 25.6107C235.51 25.9403 235.131 26.1286 234.705 26.1286H230.348C229.637 26.1286 229.069 25.5636 229.069 24.8575V4.14317C229.116 3.43701 229.685 2.87207 230.348 2.87207Z" fill="#1E1E1C"/>
<path d="M254.595 14.4999C254.595 12.2402 256.252 10.7808 258.384 10.7808C260.562 10.7808 262.172 12.2402 262.172 14.4999C262.172 16.7126 260.515 18.2662 258.384 18.2662C256.252 18.2662 254.595 16.6655 254.595 14.4999Z" fill="#E7372C"/>
<path d="M278.984 12.5701C278.984 15.9597 276.427 18.0782 272.307 18.0782H270.507C270.081 18.0782 269.702 18.4549 269.702 18.8786V21.1854C269.702 21.6091 269.323 21.9857 268.897 21.9857H266.245C265.819 21.9857 265.44 21.6091 265.44 21.1854V7.86234C265.44 7.43864 265.819 7.06201 266.245 7.06201H272.307C276.427 7.06201 278.984 9.13344 278.984 12.5701ZM274.722 12.5701C274.722 11.2049 273.822 10.3575 272.07 10.3575H270.507C270.081 10.3575 269.702 10.7341 269.702 11.1578V13.9354C269.702 14.3591 270.081 14.7357 270.507 14.7357H272.07C273.822 14.7357 274.722 13.9354 274.722 12.5701Z" fill="#E7372C"/>
<path d="M291.818 21.797V21.8912C291.818 22.3149 291.439 22.6915 291.013 22.6915H288.74C288.314 22.6915 287.935 22.3149 287.935 21.8912V21.797C287.935 21.3733 287.603 21.0438 287.224 20.9967C282.631 20.4788 280.168 18.172 280.168 14.4999C280.168 10.7808 282.631 8.52105 287.272 7.95612C287.698 7.90904 287.982 7.57949 287.982 7.15579C287.982 6.73209 288.361 6.35547 288.787 6.35547H291.06C291.487 6.35547 291.865 6.73209 291.865 7.15579C291.865 7.57949 292.197 7.90904 292.623 7.95612C297.217 8.47397 299.679 10.7808 299.679 14.4999C299.679 18.172 297.217 20.5259 292.623 20.9967C292.102 21.0438 291.818 21.3733 291.818 21.797ZM287.935 16.7597V12.1461C287.935 11.6282 287.461 11.2516 286.94 11.3457C285.046 11.7694 284.241 12.7581 284.241 14.4529C284.241 16.1477 285.141 17.0892 286.94 17.56C287.414 17.6542 287.935 17.2775 287.935 16.7597ZM295.512 14.4529C295.512 12.7581 294.612 11.7694 292.813 11.3457C292.292 11.2516 291.818 11.6282 291.818 12.1461V16.8068C291.818 17.3246 292.292 17.7012 292.813 17.6071C294.66 17.1834 295.512 16.1477 295.512 14.4529Z" fill="#E7372C"/>
</svg>
