<svg width="38" height="37" viewBox="0 0 38 37" fill="none" xmlns="http://www.w3.org/2000/svg">
<path fill-rule="evenodd" clip-rule="evenodd" d="M2.64422 8.14361C2.64422 6.89501 3.5644 5.88281 4.6995 5.88281H33.4733C34.6084 5.88281 35.5286 6.89501 35.5286 8.14361V27.1344C35.5286 27.6433 35.3757 28.113 35.1177 28.4908H37.1728V29.8473C37.1728 31.5954 35.8846 33.0124 34.2955 33.0124H3.87739C2.28825 33.0124 1 31.5954 1 29.8473V28.4908H3.05512C2.79711 28.113 2.64422 27.6433 2.64422 27.1344V8.14361ZM4.6995 28.4908H15.798V28.943C15.798 29.6922 16.3501 30.2995 17.0311 30.2995H21.1417C21.8228 30.2995 22.3749 29.6922 22.3749 28.943V28.4908H33.4733C34.1544 28.4908 34.7065 27.8835 34.7065 27.1344V8.14361C34.7065 7.39445 34.1544 6.78713 33.4733 6.78713H4.6995C4.01844 6.78713 3.46633 7.39445 3.46633 8.14361V27.1344C3.46633 27.8835 4.01844 28.4908 4.6995 28.4908ZM15.017 29.3952H1.82211V29.8473C1.82211 31.0959 2.74229 32.1081 3.87739 32.1081H34.2955C35.4306 32.1081 36.3507 31.0959 36.3507 29.8473V29.3952H23.1559C22.9654 30.4271 22.136 31.2038 21.1417 31.2038H17.0311C16.0368 31.2038 15.2074 30.4271 15.017 29.3952ZM4.28844 9.04794C4.28844 8.29877 4.84055 7.69145 5.52161 7.69145H32.6512C33.3323 7.69145 33.8844 8.29877 33.8844 9.04794V26.23C33.8844 26.9792 33.3323 27.5865 32.6512 27.5865H5.5216C4.84055 27.5865 4.28844 26.9792 4.28844 26.23V9.04794ZM5.52161 8.59578C5.29459 8.59578 5.11055 8.79821 5.11055 9.04794V26.23C5.11055 26.4798 5.29459 26.6822 5.5216 26.6822H32.6512C32.8783 26.6822 33.0623 26.4798 33.0623 26.23V9.04794C33.0623 8.79821 32.8783 8.59578 32.6512 8.59578H5.52161Z" fill="black" stroke="black" stroke-width="0.361728"/>
</svg>
