<svg width="22" height="20" viewBox="0 0 22 20" fill="none" xmlns="http://www.w3.org/2000/svg">
<path d="M9.59745 1.34892C10.0366 -0.0128887 11.9634 -0.0128858 12.4025 1.34892L13.7969 5.67233C13.9936 6.28221 14.5618 6.69508 15.2026 6.69368L19.7453 6.68375C21.1762 6.68062 21.7716 8.51304 20.6121 9.35156L16.9312 12.0136C16.4119 12.3892 16.1949 13.0572 16.3942 13.6662L17.8074 17.9835C18.2526 19.3434 16.6938 20.4759 15.5381 19.6323L11.8688 16.9541C11.3512 16.5763 10.6488 16.5763 10.1312 16.9541L6.46193 19.6323C5.30616 20.4759 3.74742 19.3434 4.19255 17.9835L5.60576 13.6662C5.80511 13.0572 5.58805 12.3892 5.0688 12.0136L1.38787 9.35155C0.228428 8.51304 0.823818 6.68062 2.25469 6.68375L6.79736 6.69368C7.43817 6.69508 8.00644 6.28221 8.20313 5.67233L9.59745 1.34892Z" fill="#DE0000"/>
</svg>
