<svg width="37" height="37" viewBox="0 0 37 37" fill="none" xmlns="http://www.w3.org/2000/svg">
<path fill-rule="evenodd" clip-rule="evenodd" d="M16.2355 16.0168L4.98746 27.2649C3.76157 28.4908 3.76157 30.4783 4.98746 31.7042C6.21335 32.9301 8.20091 32.9301 9.4268 31.7042L20.6749 20.4561L21.6341 21.4153L10.386 32.6634C8.63035 34.419 5.78391 34.419 4.02828 32.6634C2.27265 30.9078 2.27265 28.0613 4.02828 26.3057L15.2764 15.0576L16.2355 16.0168Z" fill="black"/>
<path fill-rule="evenodd" clip-rule="evenodd" d="M32.3427 10.6792C33.1025 10.8515 33.7402 11.444 33.8625 12.3627C34.2139 15.0017 33.3755 17.7718 31.3459 19.8014C27.8865 23.2608 22.2778 23.2608 18.8184 19.8014L16.8904 17.8734C13.431 14.414 13.431 8.80529 16.8904 5.34593C18.9198 3.31654 21.6895 2.47812 24.3282 2.82915C25.247 2.95138 25.8395 3.58912 26.0119 4.34887C26.179 5.0849 25.9533 5.9132 25.3519 6.51461L22.3901 9.47636C22.1228 9.74361 22.0068 10.1268 22.081 10.4974L22.6187 13.186C22.7082 13.6334 23.058 13.9832 23.5054 14.0727L26.194 14.6104C26.5647 14.6846 26.9478 14.5686 27.215 14.3013L30.1771 11.3393C30.7785 10.7379 31.6067 10.5122 32.3427 10.6792ZM32.0426 12.002C31.7736 11.941 31.4175 12.0172 31.1362 12.2985L28.1742 15.2605C27.5863 15.8484 26.7434 16.1037 25.928 15.9406L23.2394 15.4029C22.255 15.206 21.4854 14.4364 21.2885 13.452L20.7508 10.7634C20.5878 9.94804 20.843 9.10514 21.4309 8.51718L24.3927 5.55543C24.6739 5.27418 24.7501 4.91801 24.6891 4.64908C24.6334 4.40387 24.4679 4.21616 24.1493 4.17378C21.9112 3.87605 19.5677 4.587 17.8496 6.30511C14.92 9.23473 14.92 13.9846 17.8496 16.9142L19.7776 18.8422C22.7072 21.7718 27.4571 21.7718 30.3867 18.8422C32.105 17.1239 32.8159 14.7801 32.5179 12.5417C32.4755 12.2232 32.2878 12.0577 32.0426 12.002Z" fill="black"/>
</svg>
