<svg width="18" height="19" viewBox="0 0 18 19" fill="none" xmlns="http://www.w3.org/2000/svg">
<path fill-rule="evenodd" clip-rule="evenodd" d="M7.5 0.5C3.36616 0.5 0 3.86616 0 8C0 12.1338 3.36616 15.5 7.5 15.5C9.13529 15.5 10.6493 14.9715 11.8825 14.0794L15.7484 17.9453C15.8581 18.0586 15.9892 18.1491 16.134 18.2117C16.2805 18.275 16.4382 18.3085 16.5979 18.3101C16.7575 18.3117 16.9159 18.2815 17.0637 18.2211C17.2115 18.1608 17.3458 18.0715 17.4587 17.9587C17.5715 17.8458 17.6608 17.7115 17.7211 17.5637C17.7815 17.4159 17.8117 17.2575 17.8101 17.0979C17.8085 16.9382 17.775 16.7805 17.7117 16.634C17.6491 16.4892 17.5586 16.3581 17.4453 16.2484L13.5794 12.3825C14.4715 11.1493 15 9.63529 15 8C15 3.86616 11.6338 0.5 7.5 0.5ZM2.4 8C2.4 5.17506 4.67506 2.9 7.5 2.9C10.3249 2.9 12.6 5.17506 12.6 8C12.6 10.8249 10.3249 13.1 7.5 13.1C4.67506 13.1 2.4 10.8249 2.4 8Z" fill="#C4C4C4"/>
</svg>
