<svg width="17" height="17" viewBox="0 0 17 17" fill="none" xmlns="http://www.w3.org/2000/svg">
<path d="M7 0.100098C3.1423 0.100098 0 3.2424 0 7.1001C0 10.9578 3.1423 14.1001 7 14.1001C8.67756 14.1001 10.2182 13.5044 11.4256 12.5155L15.6051 16.695C15.6696 16.7622 15.7468 16.8158 15.8323 16.8528C15.9178 16.8897 16.0098 16.9093 16.1029 16.9102C16.1961 16.9112 16.2885 16.8935 16.3747 16.8583C16.4609 16.8231 16.5392 16.7711 16.6051 16.7052C16.671 16.6393 16.723 16.561 16.7582 16.4748C16.7934 16.3886 16.8111 16.2962 16.8101 16.203C16.8092 16.1099 16.7896 16.0179 16.7527 15.9324C16.7157 15.8469 16.6621 15.7697 16.5949 15.7052L12.4154 11.5257C13.4043 10.3183 14 8.77765 14 7.1001C14 3.2424 10.8577 0.100098 7 0.100098ZM7 1.5001C10.1011 1.5001 12.6 3.99901 12.6 7.1001C12.6 10.2012 10.1011 12.7001 7 12.7001C3.89891 12.7001 1.4 10.2012 1.4 7.1001C1.4 3.99901 3.89891 1.5001 7 1.5001Z" fill="#DE0000"/>
</svg>
